<svg xmlns="http://www.w3.org/2000/svg" viewBox="0 0 1200 630" role="img" aria-label="Arrows Go online preview">
  <defs>
    <linearGradient id="bg" x1="0" x2="1" y1="0" y2="1">
      <stop offset="0" stop-color="#06111f"/>
      <stop offset=".55" stop-color="#0b2a56"/>
      <stop offset="1" stop-color="#0f172a"/>
    </linearGradient>
    <linearGradient id="arrow" x1="0" x2="1">
      <stop offset="0" stop-color="#2563eb"/>
      <stop offset="1" stop-color="#60a5fa"/>
    </linearGradient>
  </defs>
  <rect width="1200" height="630" fill="url(#bg)"/>
  <path d="M0 488c146-72 272-96 378-72 139 31 255 20 349-32 102-56 238-66 473-32v278H0z" fill="#123b72" opacity=".62"/>
  <g opacity=".28" stroke="#93c5fd" stroke-width="3">
    <path d="M86 100h235M935 115h165M754 520h248M138 505h143"/>
    <path d="M230 100l36-36M1002 520l36-36M1100 115l36-36"/>
  </g>
  <path d="M245 342h431L530 196l52-52 235 235-235 235-52-52 146-146H245z" fill="url(#arrow)"/>
  <text x="92" y="142" font-family="Inter, Arial, sans-serif" font-size="38" font-weight="800" fill="#bfdbfe">Free arrow puzzle game</text>
  <text x="92" y="226" font-family="Inter, Arial, sans-serif" font-size="86" font-weight="900" fill="#ffffff">Arrows Go</text>
  <text x="96" y="286" font-family="Inter, Arial, sans-serif" font-size="34" font-weight="600" fill="#dbeafe">Launch the right arrow. Clear every board.</text>
</svg>
