<svg xmlns="http://www.w3.org/2000/svg" viewBox="0 0 640 360" role="img" aria-label="Arrows Go thumbnail">
  <defs>
    <linearGradient id="thumbBg" x1="0" x2="1" y1="0" y2="1">
      <stop offset="0" stop-color="#07111f"/>
      <stop offset=".58" stop-color="#103a42"/>
      <stop offset="1" stop-color="#101828"/>
    </linearGradient>
    <linearGradient id="thumbArrow" x1="0" x2="1">
      <stop offset="0" stop-color="#20c997"/>
      <stop offset="1" stop-color="#ffd43b"/>
    </linearGradient>
  </defs>
  <rect width="640" height="360" rx="28" fill="url(#thumbBg)"/>
  <path d="M63 278c78-36 151-46 219-30 76 18 138 11 190-19 49-28 103-38 168-29v160H0v-58z" fill="#0d3b3a" opacity=".7"/>
  <path d="M112 198h259l-86-86 34-34 145 145-145 145-34-34 86-86H112z" fill="url(#thumbArrow)"/>
  <path d="M96 86h116l-38-38 25-25 92 92-92 92-25-25 38-38H96z" fill="#ffffff" opacity=".18"/>
  <text x="44" y="66" font-family="Inter, Arial, sans-serif" font-size="28" font-weight="900" fill="#ffffff">Arrows Go</text>
  <text x="44" y="104" font-family="Inter, Arial, sans-serif" font-size="18" font-weight="700" fill="#9ff8d1">Free arrow arcade game</text>
</svg>
